<svg id="Calque_1" data-name="Calque 1" xmlns="http://www.w3.org/2000/svg" viewBox="0 0 292.17 130.33"><defs><style>.cls-1{fill:#fff;}</style></defs><path class="cls-1" d="M31.09,26.38s11-14.64,22.61-20.31A27,27,0,0,1,74.24,4.69s15,4.81,19.61,6c9,2.3,15.23,1.38,15.23,1.38s13.61-.23,23.53-10.15c0,0-11.07,20.07-31.15,22.15,0,0-5.77.46-14.3-2.08-11.22-3.33-20.3-6.27-30.23-6C48.62,16.23,39.63,19.23,31.09,26.38Z"/><path class="cls-1" d="M20.93,46.22s11-14.63,22.62-20.3a27,27,0,0,1,20.53-1.39s15,4.82,19.61,6c9,2.3,15.23,1.38,15.23,1.38s13.62-.23,23.54-10.15c0,0-11.08,20.08-31.15,22.15,0,0-5.77.46-14.31-2.07-11.21-3.34-20.3-6.28-30.22-6C38.47,36.07,29.47,39.06,20.93,46.22Z"/><path class="cls-1" d="M11.24,65.83s11-14.63,22.62-20.3a27,27,0,0,1,20.53-1.39s15,4.82,19.62,6c9,2.3,15.22,1.38,15.22,1.38s13.62-.23,23.54-10.16c0,0-11.08,20.08-31.15,22.16,0,0-5.77.46-14.31-2.08-11.21-3.33-20.29-6.28-30.22-6C28.78,55.68,19.78,58.68,11.24,65.83Z"/><path class="cls-1" d="M174,64.68l-12.3,0L159,45.42l-21.13,0-9.93,19.2-8,0L155.68.1h6.77ZM140.8,39.75l17.39,0-3.52-24Z"/><path class="cls-1" d="M199.25,44l-1.62,8.31c-.51,2.62-1,5-1.35,7.19s-.95,5.22-.95,5.22l-13.73,0s1.32-4.84,2.16-8.36,1.71-7.36,2.61-11.53,1.81-8.48,2.74-12.93,1.78-8.68,2.57-12.7,1.45-7.64,2-10.87S194.92.93,194.92.93l19.71,0a24.61,24.61,0,0,1,6.76.9,14.79,14.79,0,0,1,5.4,2.77,12.4,12.4,0,0,1,3.51,4.77,17.55,17.55,0,0,1,1.23,7,17.24,17.24,0,0,1-1.35,7,16.52,16.52,0,0,1-3.57,5.27,18,18,0,0,1-5.23,3.54A23.21,23.21,0,0,1,215.09,34c.36,1,.84,2.35,1.47,4.06s1.31,3.57,2.08,5.57,1.58,4.08,2.44,6.26,1.68,4.24,2.48,6.17,1.52,3.68,2.18,5.24,1.5,3.46,1.5,3.46l-14.44,0s-3-9.84-4.69-14.76-3.43-9.84-5.32-14.76H201.1Q200.11,39.63,199.25,44Zm4.56-12.85c.63,0,1.21.05,1.74.05a12.34,12.34,0,0,0,5.62-1.2,11.12,11.12,0,0,0,4-3.31,14.54,14.54,0,0,0,2.33-4.9,22.91,22.91,0,0,0,.77-6,12.25,12.25,0,0,0-.84-4.9,7.76,7.76,0,0,0-2.17-3,7.3,7.3,0,0,0-2.94-1.45,13.77,13.77,0,0,0-3.12-.38H208.1a6.06,6.06,0,0,0-1.17.1c-.29,1.11-.64,2.56-1,4.34s-.81,3.76-1.27,6-.91,4.55-1.39,7-.93,5-1.36,7.47C202.55,31.07,203.18,31.12,203.81,31.15Z"/><path class="cls-1" d="M276,59.51a26.36,26.36,0,0,1-8.29,1.29q-8.84,0-13.28-5.44T250,40.87a58.23,58.23,0,0,1,1.37-12.14,40.37,40.37,0,0,1,4.26-11.43,26.17,26.17,0,0,1,7.54-8.53,18.89,18.89,0,0,1,11.33-3.34,19.36,19.36,0,0,1,9.13,2,16.23,16.23,0,0,1,6.28,6.48l2.24-9.69-.35-.18a30.65,30.65,0,0,0-4.63-1.93A42.59,42.59,0,0,0,281,.63,46.19,46.19,0,0,0,273.2,0a38.07,38.07,0,0,0-14.9,2.82,35.35,35.35,0,0,0-11.69,7.82A34.84,34.84,0,0,0,239,22.3a38.33,38.33,0,0,0-1.3,24.46,25,25,0,0,0,5,9.49,25.33,25.33,0,0,0,9.57,6.94q6,2.61,15.11,2.64a43.14,43.14,0,0,0,7.62-.54c.89-.17,2.15-.52,3.27-.85l1.52-6.58A20.84,20.84,0,0,1,276,59.51Z"/><path class="cls-1" d="M6.92,88.69l.13,0,.06-.12c.24-.52.59-1.17,1-2S9.07,85,9.57,84.17l.83,0c.63,0,1.28,0,1.92,0l.83,0c0,.33.08.67.13,1l.17,1.23c.05.4.1.78.13,1.15s.06.68.07.93v.21l.2,0,.39,0h.8l.37,0,.28,0-.07-.27c-.07-.27-.15-.66-.23-1.18s-.19-1.11-.29-1.78-.22-1.38-.33-2.15-.23-1.55-.35-2.34-.22-1.56-.33-2.32l-.32-2.3h-.55l-.05.09q-1.89,3-3.75,6c-1.25,2-2.52,4-3.77,5.93l-.21.33.39,0A3.91,3.91,0,0,1,6.92,88.69ZM10.26,83l2.23-3.63L13.06,83l-.64,0c-.55,0-1.08,0-1.67,0Z"/><path class="cls-1" d="M17.67,87.34a3.54,3.54,0,0,0,1.67,1.19,7.11,7.11,0,0,0,2.42.38,6.53,6.53,0,0,0,1-.08l1.12-.17a8.5,8.5,0,0,0,1.1-.24c.33-.1.63-.19.88-.29l.09,0,0-.1.15-.69.15-.69c.22-.92.39-1.66.53-2.22s.25-1,.33-1.23l.1-.33-.33.1a1.59,1.59,0,0,1-.3.06,2.75,2.75,0,0,1-1-.06l-.19,0,0,.2q-.11.54-.21,1.14c-.08.39-.16.79-.25,1.18s-.17.7-.25,1l-.24,1a2.41,2.41,0,0,1-.43.18,5.79,5.79,0,0,1-.63.17l-.68.1-.66,0a3.83,3.83,0,0,1-1.74-.36,2.61,2.61,0,0,1-1.11-1,3.59,3.59,0,0,1-.48-1.62A8,8,0,0,1,19,82.72a9.61,9.61,0,0,1,.89-2.4,6.35,6.35,0,0,1,1.3-1.66,5,5,0,0,1,3.36-1.27,3.51,3.51,0,0,1,1,.13,3.46,3.46,0,0,1,.8.36,2.74,2.74,0,0,1,1,1.08l.05.1h.43l0-.13a5.71,5.71,0,0,1,.28-.67,3.4,3.4,0,0,1,.35-.59l.11-.16-.16-.1c-.17-.11-.35-.22-.56-.33a5.68,5.68,0,0,0-.77-.34,6.31,6.31,0,0,0-1-.26,9.44,9.44,0,0,0-1.39-.09,7.9,7.9,0,0,0-2.59.42A7.28,7.28,0,0,0,19.83,78a7.69,7.69,0,0,0-1.68,2,8.94,8.94,0,0,0-1,2.63,7.92,7.92,0,0,0-.2,2.71A4.1,4.1,0,0,0,17.67,87.34Z"/><path class="cls-1" d="M34.63,88.83l1.12-.17a8.5,8.5,0,0,0,1.1-.24c.34-.1.63-.19.88-.29l.09,0,0-.1c.06-.23.11-.46.16-.69s.09-.46.15-.69c.21-.92.39-1.66.52-2.22s.25-1,.33-1.23l.11-.33-.34.1a1.59,1.59,0,0,1-.3.06,2.77,2.77,0,0,1-1-.06l-.19,0,0,.2q-.09.54-.21,1.14c-.07.39-.16.79-.25,1.18s-.16.7-.25,1-.15.63-.24,1a2.14,2.14,0,0,1-.43.18,5.79,5.79,0,0,1-.63.17l-.68.1-.66,0a3.86,3.86,0,0,1-1.74-.36,2.67,2.67,0,0,1-1.11-1,3.47,3.47,0,0,1-.47-1.62,7.26,7.26,0,0,1,.21-2.19,8.89,8.89,0,0,1,.89-2.4A6.32,6.32,0,0,1,33,78.66a5,5,0,0,1,3.36-1.27,3.22,3.22,0,0,1,1.8.49,2.66,2.66,0,0,1,.6.5,2.75,2.75,0,0,1,.4.58l0,.1h.43l0-.13a5.71,5.71,0,0,1,.28-.67,4.18,4.18,0,0,1,.35-.59l.12-.16-.17-.1a5.54,5.54,0,0,0-.56-.33,4.75,4.75,0,0,0-.77-.34,6.06,6.06,0,0,0-1-.26,9.3,9.3,0,0,0-1.38-.09,8,8,0,0,0-2.6.42A7.23,7.23,0,0,0,31.68,78,7.72,7.72,0,0,0,30,80a8.66,8.66,0,0,0-1,2.63,7.45,7.45,0,0,0-.2,2.71,4.19,4.19,0,0,0,.76,2,3.54,3.54,0,0,0,1.67,1.19,7.15,7.15,0,0,0,2.42.38A6.53,6.53,0,0,0,34.63,88.83Z"/><path class="cls-1" d="M39.84,88.7h.25l1.41,0h2.81l1.38,0h.2v-.2a1.27,1.27,0,0,1,0-.41,3.06,3.06,0,0,1,.18-.48l.15-.31-.34,0a19.94,19.94,0,0,1-2.16.2l-1.84,0,.57-2.6q.35-1.57.84-3.72c.18-.74.36-1.48.55-2.2l.59-2.21.08-.27-.28,0-.39.06a2.58,2.58,0,0,1-.68,0c-.12,0-.24,0-.36-.06l-.18,0,0,.18c-.14.75-.28,1.49-.42,2.21s-.3,1.48-.47,2.2L41,84.1c-.16.72-.35,1.46-.55,2.21s-.38,1.44-.58,2.15Z"/><path class="cls-1" d="M48.71,87.28a3.61,3.61,0,0,0,1.62,1.24,6.17,6.17,0,0,0,2.27.39,7.68,7.68,0,0,0,2.46-.39,6.66,6.66,0,0,0,2.14-1.2,8,8,0,0,0,1.65-2,9.21,9.21,0,0,0,1-2.63,7.28,7.28,0,0,0,.18-2.65,4.41,4.41,0,0,0-.76-2,3.82,3.82,0,0,0-1.61-1.26,5.78,5.78,0,0,0-2.29-.42A7.14,7.14,0,0,0,50.82,78a8,8,0,0,0-1.66,2,9.19,9.19,0,0,0-1,2.63A7.28,7.28,0,0,0,48,85.28,4.3,4.3,0,0,0,48.71,87.28Zm6.55-9.89a3.65,3.65,0,0,1,1.52.3,2.37,2.37,0,0,1,1,.93,3.6,3.6,0,0,1,.47,1.62A8.18,8.18,0,0,1,58,82.63a9.47,9.47,0,0,1-.87,2.4,6.23,6.23,0,0,1-1.25,1.66,4.71,4.71,0,0,1-1.51,1,4.23,4.23,0,0,1-3.17,0,2.31,2.31,0,0,1-1-.93,3.6,3.6,0,0,1-.47-1.62A7.88,7.88,0,0,1,50,82.72a9.1,9.1,0,0,1,.87-2.4,6.42,6.42,0,0,1,1.24-1.66,4.75,4.75,0,0,1,1.51-1A4.56,4.56,0,0,1,55.26,77.39Z"/><path class="cls-1" d="M59.45,88.73l.31,0a3.79,3.79,0,0,1,1,0l.17,0,0-.16c.1-.45.26-1,.47-1.74s.45-1.46.71-2.26.52-1.61.8-2.44l.57-1.71c.29,1.32.57,2.6.85,3.81.34,1.43.64,2.87.92,4.3l0,.15h.39l0-.09c1-1.54,2-3,3-4.43.88-1.24,1.76-2.49,2.66-3.74-.15,1.23-.32,2.47-.51,3.68-.21,1.42-.44,2.89-.68,4.4l0,.25.26,0,.33,0h.72l.31,0,.2,0,0-.21c.09-.94.2-1.9.32-2.85s.24-1.93.37-2.91.26-2,.4-3,.27-2.07.41-3.16l0-.21H73l-1.27,1.76L70.44,80c-.45.62-.88,1.24-1.31,1.85S68.3,83,67.92,83.54l-1,1.39-.06.09c-.14.2-.26.37-.37.51-.39-1.52-.73-2.93-1.06-4.3-.36-1.52-.71-3.1-1-4.69l0-.15h-.54l0,.13c-.29.9-.61,1.86-.95,2.87s-.7,2-1.07,3S61,84.5,60.65,85.53s-.74,2-1.09,2.91Z"/><path class="cls-1" d="M81.78,74.56a4,4,0,0,0,.46-.33,1,1,0,0,0,.35-.58.57.57,0,0,0-.13-.59c-.36-.34-.78-.21-1.32.27L78,76.19h1.17Z"/><path class="cls-1" d="M75.3,88.66h2.76l1.35,0h.2v-.2a1.72,1.72,0,0,1,.05-.4c0-.07,0-.16.07-.25a1,1,0,0,1,.09-.24l.16-.34-.37.08a6.27,6.27,0,0,1-.86.13l-1.06.07-1.13,0H75.7c0-.19.09-.44.16-.73s.21-1,.36-1.6l.39-1.69c0-.18.08-.32.11-.44s0-.14,0-.2h.59l1,0c.34,0,.68,0,1,0s.63,0,.88.08l.2,0v-.2a2.65,2.65,0,0,1,.07-.48,2.91,2.91,0,0,1,.16-.5l.12-.28-.31,0-.71.06-.83,0-1,0-1,0c0-.2.1-.44.16-.73s.19-.86.29-1.3.19-.79.28-1.12.17-.59.25-.9l1.12,0,1,.06.84.07.88.07H82v-.18a2.41,2.41,0,0,1,.07-.48,4.58,4.58,0,0,1,.15-.49l.11-.26H82l-1.37.06c-.9,0-1.81,0-2.7,0l-1.35-.06h-.16l0,.16L76,78.94c-.15.75-.31,1.5-.47,2.21l-.68,2.93c-.16.72-.35,1.46-.55,2.21s-.38,1.44-.58,2.17l-.07.24h.26Z"/><path class="cls-1" d="M81.92,86.31c-.19.73-.39,1.44-.58,2.15l-.07.25.26,0a8.9,8.9,0,0,1,1.46,0l.17,0,0-.17c.13-.7.27-1.42.41-2.15s.3-1.46.47-2.21l.26-1.1h.33a14.08,14.08,0,0,1,.69,1.27c.27.54.52,1.08.77,1.62s.48,1.06.67,1.53l.45,1.08.05.13.15,0a3,3,0,0,1,.42,0h.9a3,3,0,0,1,.42,0l.17,0v0h.09l.16,0,0,0,.17,0a3.91,3.91,0,0,1,1.08,0l.13,0,.06-.12c.25-.52.59-1.17,1-2S93,85,93.46,84.17l.83,0c.63,0,1.28,0,1.93,0l.82,0c0,.33.09.67.14,1l.16,1.23c0,.4.1.78.14,1.15s0,.68.07.93v.21l.21,0,.38,0H99l.36,0,.28,0-.07-.27c-.07-.27-.14-.66-.23-1.18s-.18-1.11-.29-1.78-.21-1.38-.33-2.15-.23-1.55-.34-2.34-.23-1.56-.33-2.32l-.32-2.3h-.55l-.06.09-3.74,6c-1.26,2-2.53,4-3.78,5.93l-.09.14-.1-.15a6.42,6.42,0,0,1-.39-.68c-.17-.3-.34-.64-.51-1s-.37-.75-.56-1.16l-.5-1-.05-.11c-.18-.36-.34-.7-.48-1l-.24-.5a5.44,5.44,0,0,0,.84-.24,5.71,5.71,0,0,0,1.2-.62,5.3,5.3,0,0,0,1.06-1,3.89,3.89,0,0,0,.69-1.48,3.07,3.07,0,0,0,0-1.37,1.84,1.84,0,0,0-.55-.92,2.49,2.49,0,0,0-1-.49,6.71,6.71,0,0,0-2.12-.1,9.77,9.77,0,0,1-1.71,0l-.85-.06h-.17l0,.16c-.14.75-.28,1.49-.42,2.21s-.31,1.48-.47,2.2l-.68,2.93C82.3,84.82,82.12,85.56,81.92,86.31ZM94.15,83l2.23-3.63L97,83l-.65,0c-.55,0-1.08,0-1.66,0Zm-9.58-1,.18-.79c.14-.61.29-1.22.46-1.84l.45-1.73.48-.05.87,0a3.2,3.2,0,0,1,.75.09,1.33,1.33,0,0,1,.6.31,1.12,1.12,0,0,1,.35.6,2.06,2.06,0,0,1,0,1,2.91,2.91,0,0,1-.54,1.19,3,3,0,0,1-.85.76,3.38,3.38,0,0,1-1,.4,6,6,0,0,1-1.51.1Z"/><path class="cls-1" d="M109.06,78.05l.22,0v-.22a2.27,2.27,0,0,1,0-.48,3.9,3.9,0,0,1,.19-.51l.13-.27h-.3l-2,.06c-1.28,0-2.64,0-3.91,0l-2-.06h-.19v.19a2.72,2.72,0,0,1,0,.49,2.33,2.33,0,0,1-.19.51l-.15.31.34,0L102,78c.28,0,.56,0,.85-.06l.87,0h.6c-.22,1.09-.47,2.2-.72,3.31l-.68,2.93c-.17.75-.36,1.49-.55,2.21s-.38,1.44-.58,2.15l-.07.25.27,0a8.77,8.77,0,0,1,1.45,0l.17,0,0-.17c.14-.7.27-1.42.41-2.15s.31-1.46.48-2.21l.67-2.93c.27-1.15.55-2.29.83-3.39h.68l.85,0c.29,0,.56,0,.82.06S108.86,78,109.06,78.05Z"/><path class="cls-1" d="M111.54,81.25c.17-.74.36-1.48.55-2.2l.59-2.21.08-.27-.29,0c-.13,0-.26,0-.39.06a2.5,2.5,0,0,1-.67,0l-.37-.06-.17,0,0,.18c-.14.75-.28,1.49-.42,2.21s-.31,1.48-.47,2.2l-.68,2.93c-.17.72-.35,1.46-.55,2.21s-.39,1.44-.58,2.15l-.07.25.27,0a8.77,8.77,0,0,1,1.45,0l.17,0,0-.17c.13-.7.27-1.42.41-2.15s.3-1.46.48-2.21Z"/><path class="cls-1" d="M112.79,85.28a4.31,4.31,0,0,0,.77,2,3.63,3.63,0,0,0,1.61,1.24,6.23,6.23,0,0,0,2.28.39,7.68,7.68,0,0,0,2.46-.39,6.66,6.66,0,0,0,2.14-1.2,8,8,0,0,0,1.65-2,9.21,9.21,0,0,0,1-2.63,7.75,7.75,0,0,0,.18-2.65,4.31,4.31,0,0,0-.77-2,3.85,3.85,0,0,0-1.6-1.26,5.85,5.85,0,0,0-2.29-.42,7.27,7.27,0,0,0-2.46.42A7.06,7.06,0,0,0,115.67,78,7.79,7.79,0,0,0,114,80a8.91,8.91,0,0,0-1,2.63A7.53,7.53,0,0,0,112.79,85.28Zm7.32-7.89a3.65,3.65,0,0,1,1.52.3,2.42,2.42,0,0,1,1,.93,3.6,3.6,0,0,1,.47,1.62,8.18,8.18,0,0,1-.24,2.39A9.87,9.87,0,0,1,122,85a6.23,6.23,0,0,1-1.25,1.66,4.71,4.71,0,0,1-1.51,1,4.23,4.23,0,0,1-3.17,0,2.31,2.31,0,0,1-1-.93,3.6,3.6,0,0,1-.47-1.62,7.57,7.57,0,0,1,.24-2.39,9.48,9.48,0,0,1,.86-2.4,6.23,6.23,0,0,1,1.25-1.66,4.65,4.65,0,0,1,1.51-1A4.56,4.56,0,0,1,120.11,77.39Z"/><path class="cls-1" d="M137.3,76.53l-.32.09a1.91,1.91,0,0,1-.46.07,1.59,1.59,0,0,1-.44-.07l-.2-.06,0,.2c-.18,1-.39,2.07-.64,3.19s-.5,2.29-.78,3.49L134,85.33c-.28-.44-.6-1-.95-1.53-.46-.74-.93-1.53-1.44-2.37s-1-1.68-1.51-2.54l-1.43-2.41-.05-.09h-.5l0,.15c-.07.4-.2,1-.37,1.75s-.39,1.72-.64,2.81c-.08.37-.19.8-.31,1.27s-.24,1-.37,1.47-.27,1-.41,1.5l-.39,1.39c-.12.42-.23.78-.32,1.09a5.89,5.89,0,0,1-.21.62l-.12.29.31,0a4.1,4.1,0,0,1,1.05,0l.19,0,0-.19c0-.09,0-.26.09-.55s.11-.53.17-.85.15-.71.23-1.11.16-.79.25-1.17l.24-1.11c.07-.35.14-.65.19-.89l.52-2.18c.08-.32.16-.61.22-.85.88,1.44,1.76,2.9,2.64,4.36s1.85,3.16,2.65,4.64l.05.09h.47l.16-.7c.07-.28.14-.6.22-1l.54-2.46c.09-.42.18-.82.27-1.21l.23-1c.08-.33.19-.77.34-1.31s.29-1.1.45-1.67l.45-1.6.32-1.12Z"/><path class="cls-1" d="M153.09,85.41a8.51,8.51,0,0,0,1.22-2.93,9.87,9.87,0,0,0,.27-2.41,3.83,3.83,0,0,0-.51-1.86A3,3,0,0,0,152.69,77a5.57,5.57,0,0,0-2.28-.41c-.39,0-.78,0-1.17,0a17.33,17.33,0,0,1-2.28,0l-1.14-.06h-.16l0,.16c-.14.75-.28,1.49-.42,2.21s-.31,1.48-.47,2.2l-.68,2.93c-.17.72-.35,1.46-.55,2.21s-.38,1.44-.58,2.15l-.07.25.26,0,1,0h2l1,0a7.18,7.18,0,0,0,2-.31,6.49,6.49,0,0,0,2.09-1A7.65,7.65,0,0,0,153.09,85.41Zm-.63-3a8.79,8.79,0,0,1-1,2.69A6.08,6.08,0,0,1,150,86.72a4.45,4.45,0,0,1-1.63.81,8.59,8.59,0,0,1-2.78.17c-.26,0-.47,0-.64-.08.2-1.12.44-2.27.71-3.44l.67-2.93c.14-.61.29-1.22.44-1.81l.43-1.59,1-.11c.4,0,.83,0,1.27,0a5.88,5.88,0,0,1,1.64.21,2.15,2.15,0,0,1,1.09.7,2.69,2.69,0,0,1,.51,1.42A7.44,7.44,0,0,1,152.46,82.4Z"/><path class="cls-1" d="M156.35,88.66h2.76l1.34,0h.21v-.2a1.31,1.31,0,0,1,0-.4c0-.07,0-.16.07-.25a1.69,1.69,0,0,1,.08-.24l.17-.34-.37.08a6.2,6.2,0,0,1-.87.13l-1.06.07-1.13,0h-.84l.15-.73c.1-.42.22-1,.37-1.6l.39-1.69c0-.18.07-.32.11-.44a1.17,1.17,0,0,1,0-.2h.59l1,0c.35,0,.69,0,1,0s.64,0,.89.08l.2,0v-.2a2.65,2.65,0,0,1,.07-.48,2.91,2.91,0,0,1,.16-.5l.11-.28-.3,0-.72.06-.82,0-1,0-1,0c0-.2.1-.44.16-.73s.19-.86.29-1.3.19-.79.28-1.12.16-.59.24-.9l1.13,0,1,.06.84.07.87.07H163v-.18a2.41,2.41,0,0,1,.07-.48,3.06,3.06,0,0,1,.15-.49l.11-.26h-.29l-1.36.06c-.9,0-1.82,0-2.71,0l-1.34-.06h-.16l0,.16-.42,2.18c-.15.75-.31,1.5-.48,2.21l-.67,2.93c-.17.72-.35,1.46-.55,2.21s-.39,1.44-.58,2.17l-.07.24H155Z"/><path class="cls-1" d="M174.42,87.35a19.77,19.77,0,0,1-2.15.2l-1.84,0L171,85q.34-1.57.84-3.72c.17-.74.36-1.48.55-2.2l.59-2.21.08-.27-.28,0-.39.06a2.58,2.58,0,0,1-.68,0c-.12,0-.24,0-.36-.06l-.18,0,0,.18c-.14.75-.28,1.49-.42,2.21s-.31,1.48-.47,2.2l-.68,2.93c-.17.72-.35,1.46-.55,2.21s-.38,1.44-.58,2.15l-.06.24h.25l1.41,0h2.8l1.39,0h.2v-.2a1.24,1.24,0,0,1,0-.41,1.84,1.84,0,0,1,.18-.48l.14-.31Z"/><path class="cls-1" d="M178.86,84.17l.83,0c.63,0,1.29,0,1.93,0l.82,0c0,.33.09.67.14,1l.16,1.23c.06.4.1.78.14,1.15s.06.68.07.93v.21l.2,0,.38,0h.81l.36,0,.28,0-.07-.27c-.06-.27-.14-.66-.23-1.18s-.18-1.11-.29-1.78-.21-1.38-.33-2.15-.23-1.55-.34-2.34-.23-1.56-.33-2.32l-.32-2.3h-.55l-.06.09-3.74,6c-1.24,2-2.51,4-3.77,5.93l-.22.33.39,0a3.91,3.91,0,0,1,1.08,0l.13,0,.06-.12c.25-.52.6-1.19,1-2S178.36,85,178.86,84.17Zm.69-1.15,2.23-3.63.58,3.64-.65,0c-.54,0-1.08,0-1.66,0Z"/><path class="cls-1" d="M193.89,88.69l.17,0,0-.17c.13-.7.27-1.42.41-2.15s.31-1.46.48-2.21l.25-1.1h.33a14.08,14.08,0,0,1,.69,1.27q.41.81.78,1.62c.24.55.47,1.06.67,1.53s.34.84.44,1.08l.06.13.14,0a3,3,0,0,1,.42,0h.9a3,3,0,0,1,.42,0l.41.06-.23-.35c-.1-.15-.23-.38-.39-.68s-.33-.64-.51-1l-.55-1.15-.52-1.08,0-.09c-.18-.36-.34-.7-.48-1l-.23-.5a6.16,6.16,0,0,0,.84-.24,5.89,5.89,0,0,0,1.19-.62,5,5,0,0,0,1.06-1,3.75,3.75,0,0,0,.69-1.48,2.93,2.93,0,0,0,0-1.37,1.84,1.84,0,0,0-.55-.92,2.45,2.45,0,0,0-1-.49,6.76,6.76,0,0,0-2.13-.1,9.77,9.77,0,0,1-1.71,0l-.85-.06H195l0,.16c-.14.75-.28,1.49-.42,2.21s-.31,1.48-.47,2.2l-.68,2.93c-.16.72-.35,1.46-.55,2.21s-.38,1.44-.58,2.15l-.07.25.27,0A8.77,8.77,0,0,1,193.89,88.69ZM195.47,82l.18-.79c.14-.61.3-1.22.46-1.84l.46-1.73.47-.05.88,0a3.18,3.18,0,0,1,.74.09,1.33,1.33,0,0,1,.6.31,1.13,1.13,0,0,1,.36.6,2.08,2.08,0,0,1,0,1,2.91,2.91,0,0,1-.54,1.19,3,3,0,0,1-.84.76,3.43,3.43,0,0,1-1,.4,5.92,5.92,0,0,1-1.51.1Z"/><path class="cls-1" d="M209.87,77.35a3.11,3.11,0,0,1,.16-.49l.11-.26h-.29l-1.37.06c-.89,0-1.81,0-2.7,0l-1.35-.06h-.16l0,.16c-.13.73-.27,1.45-.42,2.18s-.3,1.5-.47,2.21l-.67,2.93c-.17.72-.35,1.46-.55,2.21s-.39,1.44-.59,2.17l-.06.24h.25l1.38,0h2.77l1.34,0h.2v-.2a1.31,1.31,0,0,1,.05-.4c0-.07,0-.16.06-.25s.06-.16.09-.23l.17-.35-.37.08a6.2,6.2,0,0,1-.87.13l-1.06.07-1.13,0h-.84l.15-.73c.09-.42.21-1,.36-1.6l.39-1.69c0-.18.08-.32.11-.44a1.94,1.94,0,0,0,.05-.2h.59l1,0c.34,0,.69,0,1,0s.64,0,.89.08l.2,0v-.2a2.65,2.65,0,0,1,.07-.48,4.13,4.13,0,0,1,.15-.5l.12-.28-.3,0-.72.06-.82,0-1,0-1,0c0-.2.09-.44.16-.73s.19-.86.29-1.3.19-.79.28-1.12.16-.59.24-.9l1.13,0,1,.06.83.07.88.07h.19v-.18A3.5,3.5,0,0,1,209.87,77.35Z"/><path class="cls-1" d="M209.6,74.56a3.94,3.94,0,0,0,.45-.33,1,1,0,0,0,.36-.58.59.59,0,0,0-.13-.59c-.36-.34-.79-.21-1.33.27l-3.18,2.86h1.17Z"/><path class="cls-1" d="M214.7,88.91a6.62,6.62,0,0,0,1-.08l1.12-.17a8.5,8.5,0,0,0,1.1-.24c.33-.1.63-.19.88-.29l.09,0,0-.1.15-.69.15-.69c.21-.92.39-1.66.53-2.22s.25-1,.33-1.23l.1-.33-.33.1a1.59,1.59,0,0,1-.3.06,2.75,2.75,0,0,1-1-.06l-.19,0,0,.2q-.11.54-.21,1.14c-.08.39-.16.79-.25,1.18s-.17.7-.25,1l-.24,1a2.53,2.53,0,0,1-.44.18,5.06,5.06,0,0,1-.62.17l-.68.1-.66,0a3.9,3.9,0,0,1-1.75-.36,2.73,2.73,0,0,1-1.11-1,3.72,3.72,0,0,1-.47-1.62,7.59,7.59,0,0,1,.21-2.19,9.47,9.47,0,0,1,.89-2.4,6.35,6.35,0,0,1,1.3-1.66,5,5,0,0,1,3.36-1.27,3.51,3.51,0,0,1,1,.13,3.46,3.46,0,0,1,.8.36,2.95,2.95,0,0,1,1,1.08l0,.1h.43l0-.13a4.85,4.85,0,0,1,.28-.67,4.23,4.23,0,0,1,.34-.59l.12-.16-.16-.1c-.17-.11-.35-.22-.56-.33a5.68,5.68,0,0,0-.77-.34,6.31,6.31,0,0,0-1-.26,9.54,9.54,0,0,0-1.39-.09,7.9,7.9,0,0,0-2.59.42A7.28,7.28,0,0,0,212.77,78a7.69,7.69,0,0,0-1.68,2A8.94,8.94,0,0,0,210,82.63a7.92,7.92,0,0,0-.2,2.71,4.06,4.06,0,0,0,.77,2,3.54,3.54,0,0,0,1.67,1.19A7.11,7.11,0,0,0,214.7,88.91Z"/><path class="cls-1" d="M220.93,88.71l.26,0a8.9,8.9,0,0,1,1.46,0l.17,0,0-.17c.13-.7.27-1.42.41-2.15s.3-1.46.47-2.21l.68-2.93c.17-.73.35-1.47.55-2.2l.59-2.21.08-.27-.29,0c-.13,0-.26,0-.39.06a2.58,2.58,0,0,1-.68,0l-.36-.06-.18,0,0,.18c-.14.75-.28,1.49-.43,2.21s-.3,1.48-.47,2.2l-.67,2.93c-.17.72-.35,1.46-.55,2.21s-.39,1.44-.58,2.15Z"/><path class="cls-1" d="M225.66,85.28a4.31,4.31,0,0,0,.77,2A3.63,3.63,0,0,0,228,88.52a6.23,6.23,0,0,0,2.28.39,7.73,7.73,0,0,0,2.46-.39,6.51,6.51,0,0,0,2.13-1.2,7.82,7.82,0,0,0,1.66-2,8.91,8.91,0,0,0,1-2.63,7.28,7.28,0,0,0,.18-2.65,4.19,4.19,0,0,0-.76-2,3.85,3.85,0,0,0-1.6-1.26,5.85,5.85,0,0,0-2.29-.42,7.23,7.23,0,0,0-2.46.42A6.94,6.94,0,0,0,228.54,78a7.79,7.79,0,0,0-1.66,2,9.21,9.21,0,0,0-1,2.63A7.75,7.75,0,0,0,225.66,85.28ZM233,77.39a3.57,3.57,0,0,1,1.51.3,2.31,2.31,0,0,1,1,.93,3.48,3.48,0,0,1,.47,1.62,7.55,7.55,0,0,1-.24,2.39,9.48,9.48,0,0,1-.86,2.4,6.23,6.23,0,0,1-1.25,1.66,4.54,4.54,0,0,1-1.51,1,4.26,4.26,0,0,1-3.18,0,2.42,2.42,0,0,1-1-.93,3.6,3.6,0,0,1-.47-1.62,8.21,8.21,0,0,1,.24-2.39,9.72,9.72,0,0,1,.87-2.4,6.23,6.23,0,0,1,1.25-1.66A4.58,4.58,0,0,1,233,77.39Z"/><path class="cls-1" d="M248.28,83.57l.23-1c.08-.33.19-.77.33-1.31s.3-1.1.46-1.67.3-1.1.44-1.6.25-.87.33-1.12l.1-.32-.32.09a2,2,0,0,1-.46.07,1.6,1.6,0,0,1-.45-.07l-.19-.06,0,.2c-.18,1-.39,2.07-.64,3.19s-.5,2.29-.78,3.49l-.44,1.89q-.43-.67-1-1.53c-.45-.74-.93-1.53-1.43-2.37s-1-1.68-1.51-2.54l-1.43-2.41-.05-.09H241l0,.15c-.07.4-.2,1-.37,1.75s-.39,1.72-.64,2.81c-.09.37-.19.8-.31,1.27s-.25,1-.38,1.47-.26,1-.4,1.5l-.39,1.39c-.12.42-.23.78-.32,1.09l-.21.62-.12.29.31,0a4.1,4.1,0,0,1,1,0l.18,0,0-.19q0-.14.09-.51c0-.25.1-.55.17-.89s.14-.71.23-1.11.16-.79.24-1.17l.24-1.11c.08-.35.15-.65.2-.89.21-.92.39-1.64.52-2.18.08-.32.15-.61.22-.85.88,1.44,1.76,2.9,2.64,4.36s1.85,3.17,2.65,4.64l.05.09h.47l.16-.7c.06-.25.12-.54.19-.86l.56-2.57C248.1,84.36,248.19,84,248.28,83.57Z"/><path class="cls-1" d="M257,88.66h2l1,0a7.18,7.18,0,0,0,2-.31,6.45,6.45,0,0,0,2.08-1A7.68,7.68,0,0,0,266,85.41a8.71,8.71,0,0,0,1.22-2.93,9.82,9.82,0,0,0,.27-2.41,3.83,3.83,0,0,0-.51-1.86A3,3,0,0,0,265.56,77a5.57,5.57,0,0,0-2.28-.41c-.39,0-.78,0-1.17,0a19.25,19.25,0,0,1-2.28,0l-1.14-.06h-.16l0,.16c-.14.75-.28,1.49-.43,2.21s-.3,1.47-.46,2.2l-.68,2.93c-.17.72-.35,1.46-.55,2.21s-.39,1.44-.58,2.15l-.07.25.26,0Zm.82-1c.21-1.12.44-2.27.71-3.44l.68-2.93c.14-.61.29-1.22.44-1.81s.29-1.08.43-1.59c.29,0,.61-.08,1-.11s.83,0,1.27,0a5.88,5.88,0,0,1,1.64.21,2.15,2.15,0,0,1,1.09.7,2.78,2.78,0,0,1,.51,1.42,7.44,7.44,0,0,1-.23,2.38,9.05,9.05,0,0,1-1,2.69,5.93,5.93,0,0,1-1.43,1.63,4.33,4.33,0,0,1-1.62.81,8.65,8.65,0,0,1-2.79.17C258.21,87.68,258,87.65,257.82,87.62Z"/><path class="cls-1" d="M276,76.61l-1.37.06c-.89,0-1.81,0-2.7,0l-1.35-.06h-.16l0,.16c-.13.73-.27,1.45-.42,2.18s-.3,1.47-.47,2.21l-.67,2.93c-.17.71-.35,1.45-.55,2.21s-.39,1.44-.59,2.17l-.06.24h.25l1.38,0H272l1.34,0h.2v-.2a1.84,1.84,0,0,1,.06-.4c0-.07,0-.16.06-.25s.06-.16.09-.23l.17-.35-.37.08a6.43,6.43,0,0,1-.87.13l-1.06.07-1.13,0h-.84l.15-.73c.09-.42.21-1,.36-1.6l.39-1.69c0-.18.08-.32.11-.44a1.94,1.94,0,0,0,.05-.2h.59l1,0c.34,0,.69,0,1,0s.64,0,.89.08l.2,0v-.2a2.65,2.65,0,0,1,.07-.48,4.13,4.13,0,0,1,.15-.5l.12-.28-.3,0-.72.06-.82,0-1,0-1,0c0-.2.09-.44.16-.73s.19-.86.29-1.3.19-.79.28-1.12.16-.59.24-.9l1.13,0,1,.06.83.07.88.07h.19v-.18a2.62,2.62,0,0,1,.22-1l.11-.26Z"/><path class="cls-1" d="M26,99.9a21.21,21.21,0,0,0-5.22-.58,23.29,23.29,0,0,0-7,1,20,20,0,0,0-6,3,19.49,19.49,0,0,0-4.56,4.88,20.51,20.51,0,0,0-2.74,6.58,16.06,16.06,0,0,0-.29,6.58,10.48,10.48,0,0,0,2.28,4.92,10.21,10.21,0,0,0,4.49,3,18.86,18.86,0,0,0,6.28,1,20.18,20.18,0,0,0,3.22-.26c1-.17,2-.37,2.86-.58a16.38,16.38,0,0,0,2.27-.74,8.21,8.21,0,0,0,1.47-.78l0,0,1-2.68-.3-.39-.14.09c-.49.32-1.08.69-1.77,1.09a19.41,19.41,0,0,1-2.28,1.15,20.2,20.2,0,0,1-2.66.92,11.57,11.57,0,0,1-3,.38,12.33,12.33,0,0,1-4.57-.8,7.35,7.35,0,0,1-3.23-2.46A8.82,8.82,0,0,1,4.7,121a17.93,17.93,0,0,1,.49-6.1,22.12,22.12,0,0,1,2.33-6.12,16.23,16.23,0,0,1,3.54-4.25,14,14,0,0,1,4.4-2.48,15.58,15.58,0,0,1,5-.81,9,9,0,0,1,2.76.4,9.09,9.09,0,0,1,2.1,1,9.52,9.52,0,0,1,1.54,1.22,6.88,6.88,0,0,1,.94,1.13l.07.12.51-.15,0-.08q.28-.69.75-1.71a7.37,7.37,0,0,1,.92-1.6l.15-.18-.21-.1A21.21,21.21,0,0,0,26,99.9Z"/><path class="cls-1" d="M63.29,103.42a11,11,0,0,0-4.61-3.06,19,19,0,0,0-6.53-1,23.22,23.22,0,0,0-7,1,20,20,0,0,0-6,3,19.31,19.31,0,0,0-4.56,4.88,20.29,20.29,0,0,0-2.74,6.58,15.89,15.89,0,0,0-.29,6.58A10.25,10.25,0,0,0,34,126.35a10.51,10.51,0,0,0,4.63,3,20,20,0,0,0,6.49,1,24.43,24.43,0,0,0,7-1,18.56,18.56,0,0,0,6-3,19.32,19.32,0,0,0,4.56-4.88,20.55,20.55,0,0,0,2.74-6.57,16.12,16.12,0,0,0,.29-6.59A10.38,10.38,0,0,0,63.29,103.42ZM45.41,128.5a12.23,12.23,0,0,1-4.53-.8,7.38,7.38,0,0,1-3.22-2.46A8.72,8.72,0,0,1,36.11,121a17.68,17.68,0,0,1,.49-6.1,21.81,21.81,0,0,1,2.33-6.12,16.2,16.2,0,0,1,3.53-4.25,13.89,13.89,0,0,1,4.41-2.48,15.41,15.41,0,0,1,4.91-.81,12.22,12.22,0,0,1,4.58.81,7.36,7.36,0,0,1,3.22,2.45,8.76,8.76,0,0,1,1.55,4.21,18,18,0,0,1-.49,6.11A22.17,22.17,0,0,1,58.31,121a15.88,15.88,0,0,1-3.53,4.25,13.91,13.91,0,0,1-4.41,2.48A15.3,15.3,0,0,1,45.41,128.5Z"/><path class="cls-1" d="M105.29,99.39l-3.36,4.25q-1.82,2.28-3.66,4.64L94.64,113c-1.19,1.53-2.31,3-3.35,4.27s-2,2.49-2.75,3.51l-1.61,2.07c-1.28-3.91-2.52-7.77-3.67-11.49s-2.33-7.83-3.41-11.86l0-.13h-1l0,.12c-.77,2.3-1.61,4.74-2.51,7.24s-1.84,5.08-2.84,7.71-2,5.16-3,7.78-2,5-2.89,7.35l-.12.29.31,0a14,14,0,0,1,3,0l.17,0,0-.16c.26-1.14.67-2.62,1.23-4.4s1.18-3.69,1.85-5.71,1.36-4,2.1-6.14c.67-1.92,1.3-3.71,1.87-5.37,1,3.62,2.08,7.21,3.12,10.69s2.11,7.26,3,10.85l0,.13h.63l.06-.08c2.65-3.87,5.39-7.64,8.16-11.18s5.41-6.93,8.17-10.4c-.38,3.52-.81,7-1.29,10.45q-.75,5.37-1.59,11.09l0,.25.25,0a6.15,6.15,0,0,1,1-.09h2.07a5.52,5.52,0,0,1,1,.09l.2,0v-.2c.2-2.37.43-4.79.69-7.19s.54-4.87.82-7.35.57-5,.88-7.57.64-5.3.94-8l0-.2h-.87Z"/><path class="cls-1" d="M134.69,102.13a4.55,4.55,0,0,0-1.69-1.29,10,10,0,0,0-2-.66,12.43,12.43,0,0,0-2-.26c-.66,0-1.19,0-1.63,0s-.72,0-1.22,0-1,0-1.48.06l-1.54.07c-.49,0-.92,0-1.28,0-.7,0-1.41,0-2.12-.06l-2.1-.15-.16,0,0,.17q-.52,2.84-1,5.56c-.35,1.83-.75,3.7-1.18,5.56l-1.7,7.39c-.44,1.88-.91,3.75-1.4,5.58s-1,3.64-1.5,5.42l-.07.25.27,0a27.92,27.92,0,0,1,4.29,0h.17l0-.16c.32-1.78.65-3.58,1-5.42s.75-3.69,1.18-5.58l.51-2.2c.53,0,1,.08,1.55.09l1.85,0a23.84,23.84,0,0,0,3.75-.34,15.61,15.61,0,0,0,4.24-1.35,13,13,0,0,0,3.78-2.79,10,10,0,0,0,2.36-4.69,7.51,7.51,0,0,0,.17-3.1A4.8,4.8,0,0,0,134.69,102.13ZM131,107.54a8.92,8.92,0,0,1-1.56,3.52A8.33,8.33,0,0,1,127,113.2a9.63,9.63,0,0,1-2.87,1.08,13.71,13.71,0,0,1-5.68,0l2.87-12.45h3.82a16.64,16.64,0,0,1,3,.24,4.44,4.44,0,0,1,2,.84,3,3,0,0,1,1,1.7A6.77,6.77,0,0,1,131,107.54Z"/><path class="cls-1" d="M147.24,100a9,9,0,0,1-2.07,0l-1.06-.15-.18,0,0,.18q-.53,2.84-1,5.56c-.35,1.83-.75,3.7-1.18,5.56l-1.7,7.39c-.44,1.88-.91,3.75-1.4,5.58s-1,3.64-1.49,5.42l-.08.25.27,0a27.92,27.92,0,0,1,4.29,0h.17l0-.16c.32-1.78.65-3.58,1-5.42s.75-3.69,1.18-5.58l1.71-7.39c.44-1.9.91-3.77,1.39-5.56s1-3.67,1.53-5.56l.07-.27-.27,0Z"/><path class="cls-1" d="M170.11,100c-2.6.08-5.29.08-7.86,0l-3.92-.15h-.16l0,.16q-.51,2.75-1,5.5c-.35,1.83-.75,3.71-1.18,5.58l-1.71,7.39c-.43,1.88-.9,3.75-1.39,5.56s-1,3.64-1.51,5.48l-.07.24h.26c1.35-.06,2.7-.09,4-.09h8c1.31,0,2.63,0,3.92.09h.21l0-.21a3.78,3.78,0,0,1,.12-1.06c.05-.2.1-.42.18-.66a3,3,0,0,1,.25-.63l.18-.34L168,127a20.46,20.46,0,0,1-2.55.31c-.94.08-2,.13-3.07.18s-2.2.06-3.3.06h-2.87c.1-.53.25-1.27.45-2.18.23-1.06.54-2.41.91-4l1-4.26c.1-.45.2-.83.28-1.13s.13-.48.18-.7l2,0,2.86,0c1,0,2,0,3,.11s1.88.13,2.61.22l.2,0v-.2a6.79,6.79,0,0,1,.16-1.26,7.62,7.62,0,0,1,.43-1.3l.13-.28-.31,0-2.08.15-2.39.13c-.89,0-1.85.08-2.85.1s-2.06,0-3.25,0c.12-.54.28-1.26.48-2.19s.47-2.14.73-3.26.49-2,.72-2.83.45-1.62.68-2.49c1.38,0,2.57,0,3.54.07s2,.09,2.81.15l2.42.17,2.55.17h.19v-.19a6.79,6.79,0,0,1,.16-1.25,8.09,8.09,0,0,1,.42-1.26l.12-.27-.29,0Z"/><path class="cls-1" d="M161.72,90.83a1.7,1.7,0,0,0-.83,1.15,1.41,1.41,0,0,0,.29,1.39,7.45,7.45,0,0,0,.89.82l5.61,4.08H170l-5.24-6.71a2.46,2.46,0,0,0-1.89-1.1A2.3,2.3,0,0,0,161.72,90.83Z"/><path class="cls-1" d="M207.55,101a17.2,17.2,0,0,0-2.19-.83,18.71,18.71,0,0,0-3-.62,28.71,28.71,0,0,0-4-.24,25.64,25.64,0,0,0-7.37,1,20.34,20.34,0,0,0-6.2,3,19.08,19.08,0,0,0-4.64,4.88,19.7,19.7,0,0,0-2.77,6.58,17,17,0,0,0-.35,6.73,9.8,9.8,0,0,0,2.33,4.91,10.78,10.78,0,0,0,4.78,2.91,23.25,23.25,0,0,0,6.93.93,24.82,24.82,0,0,0,2.91-.2c1.05-.12,2.14-.27,3.23-.43a31.17,31.17,0,0,0,3.11-.6c1-.24,1.82-.48,2.5-.71l.1,0,0-.1c.13-.57.26-1.15.38-1.74s.25-1.17.38-1.74c.53-2.32,1-4.2,1.34-5.6s.63-2.45.85-3.11l.1-.32-.33.09a5,5,0,0,1-.93.16,10.1,10.1,0,0,1-3-.17l-.18,0,0,.18c-.15.92-.32,1.88-.5,2.88s-.41,2-.63,3-.42,1.76-.63,2.62-.42,1.67-.64,2.5a8.79,8.79,0,0,1-1.42.55,16.53,16.53,0,0,1-1.84.42,19.74,19.74,0,0,1-2,.26q-1,.09-2,.09a13.37,13.37,0,0,1-5.24-.94,8.13,8.13,0,0,1-3.45-2.62,8.56,8.56,0,0,1-1.56-4.19,16.59,16.59,0,0,1,.42-5.61,20.8,20.8,0,0,1,2.4-6.12,16.27,16.27,0,0,1,3.68-4.25,14.72,14.72,0,0,1,4.63-2.48,17.26,17.26,0,0,1,5.22-.81,12.4,12.4,0,0,1,3,.36,11.5,11.5,0,0,1,2.43.93,8.83,8.83,0,0,1,1.85,1.33,7.72,7.72,0,0,1,1.27,1.51l.05.09h.77l0-.13a11.88,11.88,0,0,1,.77-1.73,9.34,9.34,0,0,1,1-1.52l.14-.17-.2-.11C208.71,101.57,208.16,101.3,207.55,101Z"/><path class="cls-1" d="M243.59,100.09a5.73,5.73,0,0,1-1.41-.21l-.19,0,0,.2c-.44,2.51-1,5.22-1.58,8s-1.28,5.84-2,8.79l-1.26,5.47c-1-1.25-2.13-2.76-3.4-4.49s-2.82-3.87-4.35-6-3.11-4.31-4.61-6.4-3-4.2-4.35-6.09l-.06-.07h-.95l0,.15c-.16,1-.47,2.45-.91,4.42s-1,4.34-1.61,7.09c-.21.91-.47,2-.79,3.22l-1,3.69c-.33,1.23-.68,2.5-1,3.78s-.7,2.43-1,3.5-.58,2-.83,2.77-.44,1.29-.57,1.57l-.12.29.31,0a14.33,14.33,0,0,1,3.14,0l.18,0,0-.19c0-.22.1-.65.21-1.29s.27-1.4.44-2.26l.55-2.79c.21-1,.41-2,.62-3l.6-2.8c.19-.88.36-1.63.5-2.23.54-2.36,1-4.16,1.31-5.5.29-1.14.53-2.09.73-2.85,2.88,3.92,5.74,7.83,8.49,11.62,2.89,4,5.62,7.93,8.1,11.71l.05.08h.87l.36-1.56q.24-1,.54-2.43c.19-.93.41-1.94.65-3l.69-3.2c.23-1.06.46-2.08.68-3l.6-2.58c.19-.83.47-1.94.85-3.3s.76-2.78,1.17-4.21.79-2.78,1.15-4,.65-2.21.85-2.83l.1-.31-.31.07A6.8,6.8,0,0,1,243.59,100.09Z"/><path class="cls-1" d="M266.76,100c-2.6.08-5.29.08-7.87,0L255,99.88h-.16l0,.16q-.49,2.75-1,5.5c-.35,1.83-.75,3.71-1.18,5.58l-1.71,7.39c-.43,1.89-.9,3.76-1.39,5.56s-1,3.64-1.51,5.48l-.07.24h.26c1.34-.06,2.7-.09,4-.09h8c1.3,0,2.62,0,3.92.09h.21l0-.21a3.78,3.78,0,0,1,.12-1.06c.05-.2.1-.42.17-.66a3.6,3.6,0,0,1,.25-.63l.18-.34-.37.08a20.7,20.7,0,0,1-2.55.31c-.95.08-2,.13-3.08.18s-2.2.06-3.29.06h-2.87c.1-.54.25-1.28.45-2.18.23-1.06.54-2.41.91-4l1-4.26c.11-.45.2-.83.29-1.13s.13-.48.18-.7l2,0,2.85,0c1,0,2,0,3,.11s1.88.13,2.6.22l.2,0v-.2a6,6,0,0,1,.16-1.26,7.62,7.62,0,0,1,.43-1.3l.12-.28-.31,0-2.08.15-2.38.13c-.89,0-1.85.08-2.85.1s-2.06,0-3.26,0l.49-2.19c.23-1.06.47-2.14.73-3.26s.48-2,.72-2.83.45-1.62.68-2.49c1.38,0,2.57,0,3.54.07s2,.09,2.8.15,1.67.11,2.43.17l2.55.17h.19v-.19a6.79,6.79,0,0,1,.16-1.25,8.09,8.09,0,0,1,.42-1.26l.12-.27-.3,0Z"/></svg>