<svg id="Calque_1" data-name="Calque 1" xmlns="http://www.w3.org/2000/svg" viewBox="0 0 279.79 294.83"><defs><style>.cls-1{fill:#fff;}</style></defs><path class="cls-1" d="M0,274.81c0-13,7.71-20.47,16.59-20.47a14.18,14.18,0,0,1,10.57,5.07L23,265.07c-1.76-1.83-3.66-3.11-6.2-3.11-4.82,0-8.63,4.72-8.63,12.55,0,8,3.36,12.7,8.5,12.7a9,9,0,0,0,6.88-3.65l4.19,5.54a13.92,13.92,0,0,1-11.35,5.73C7.44,294.83,0,288,0,274.81Z"/><path class="cls-1" d="M29.39,274.42c0-12.76,6.49-20.08,16-20.08s16,7.36,16,20.08-6.49,20.41-16,20.41S29.39,287.18,29.39,274.42Zm23.78,0c0-7.83-3-12.46-7.82-12.46s-7.82,4.63-7.82,12.46,3,12.79,7.82,12.79S53.17,282.25,53.17,274.42Z"/><path class="cls-1" d="M67.94,255.06h8.67l5.7,17.35c.7,2.31,1.32,4.81,2,7.21h.22c.7-2.4,1.3-4.9,2-7.21l5.53-17.35h8.67v39.05H93.51V279.78c0-3.81.64-9.49,1-13.27h-.22l-2.88,9.24-5,15H82.05l-5-15-2.8-9.24h-.22c.38,3.78,1,9.46,1,13.27v14.33H67.94Z"/><path class="cls-1" d="M109,255.06h12.08c7.73,0,14,3.07,14,12.56,0,9.18-6.31,13.24-13.76,13.24H117v13.25h-8Zm11.82,18.79c4.37,0,6.44-2.16,6.44-6.23s-2.35-5.55-6.65-5.55H117v11.78Z"/><path class="cls-1" d="M141.17,255.06h8v39.05h-8Z"/><path class="cls-1" d="M157.41,255.06h22v7.4H165.35v7.84h12v7.41h-12v9H180v7.4H157.41Zm2.06-8.82,4.21-5.68,9.2,8.37-3.5,4.42Z"/><path class="cls-1" d="M185.3,274.81c0-13,7.74-20.47,17.13-20.47a14.55,14.55,0,0,1,11.09,5.07l-4.19,5.66a8.72,8.72,0,0,0-6.64-3.11c-5.41,0-9.25,4.72-9.25,12.55,0,8,3.27,12.7,9.89,12.7a5.92,5.92,0,0,0,3.72-1.16V279.3h-5.82v-7.21h12.88v18a16,16,0,0,1-11.6,4.73C192.83,294.83,185.3,288,185.3,274.81Z"/><path class="cls-1" d="M221.36,255.06h8.15l9.17,19.42,3.47,8.58h.22c-.38-4.13-1-9.6-1-14.21V255.06h7.57v39.05h-8.14l-9.17-19.47-3.47-8.53h-.22c.37,4.31,1,9.54,1,14.14v13.86h-7.58Z"/><path class="cls-1" d="M257.23,255.06h22v7.4H265.17v7.84h12v7.41h-12v9h14.62v7.4H257.23Z"/><path class="cls-1" d="M140.87,240.76V0l2.22,1.49A73.1,73.1,0,0,1,163,21.34C172.25,35,176,50.82,174.19,68.4a102.29,102.29,0,0,1-9.14,32.38c-.53,1.14-1.06,2.29-1.6,3.43a99.18,99.18,0,0,0-5.23,12.59,159.73,159.73,0,0,0-4.74,20.61c-1.33,7.86-1.25,15.84-1,24,1.75,0,3.89.05,5.64.06.08-.81.14-1.51.16-2.2a99.41,99.41,0,0,1,3.89-25.14,53.34,53.34,0,0,1,12.31-22.32c14.68-15.55,35.9-14,45-7a30,30,0,0,1,12.37,27.5c-1.71,18.53-16.2,30.12-29,31.61l-2.21.26.7-2.11c.8-2.44,2.14-8.64,1.75-12.61a13.1,13.1,0,0,0-4.86-8.51,15.31,15.31,0,0,0-11.58-3.21,12.28,12.28,0,0,0-10.5,7.58c-2.11,4.64-2.77,9.81-2.12,16.65h17.74v22.28H190.4l-19.74.06H155.75c0,3.91,1.49,10.94,6.46,14.52,4.43,3.2,10.72,3,18.7-.46l3.75-1.65-1.93,3.62c-8.56,16.06-19.58,16.93-27.62,17.57l-1.44.12c-.27,6.55-1.89,15.32-10.58,21.23ZM143.71,5.4V235.19c4.77-4.2,7-10,7.15-18.49l0-1.25,1.25-.14c.87-.09,1.8-.17,2.76-.24,7.13-.57,15.86-1.26,23.29-12.62-7.19,2.38-13.12,1.94-17.63-1.32-6.35-4.58-8-13.7-7.58-18.38l.12-1.29h17.57L189,181.4V164.79H171.54l-.15-1.25c-.92-8-.24-14,2.23-19.42a15.11,15.11,0,0,1,12.8-9.23,18.08,18.08,0,0,1,13.66,3.84A16,16,0,0,1,206,149.16c.35,3.6-.5,8.46-1.26,11.57C215.79,158.4,227.56,148,229,132a27.18,27.18,0,0,0-11.19-24.93l-.06,0c-8.42-6.52-28.17-7.12-41.21,6.7a50.54,50.54,0,0,0-11.64,21.15,95.69,95.69,0,0,0-3.79,24.42c0,.8-.09,1.6-.17,2.44,0,.39-.08.81-.11,1.25l-.11,1.31h-2.13c-2.3,0-5.46,0-7.55-.12l-1.31,0-.05-1.31c-.32-8.77-.49-17.36,1-25.91a161.53,161.53,0,0,1,4.83-21,100.35,100.35,0,0,1,5.37-13c.53-1.13,1.06-2.27,1.58-3.4a99.65,99.65,0,0,0,8.91-31.5c1.79-17.13-1.73-31.9-10.74-45.17A70,70,0,0,0,143.71,5.4Z"/><path class="cls-1" d="M172.21,166.72c-5.74-2.21-9.18-5.13-10.82-3.82s-.06,5.11,2.49,7.39c3.69,3.3,6.8,5.26,9,8.7.46.72,1.59,3.31,1.59,3.31.52.67,1.13-.09,1.13-.09,5-4.15,9.06-.41,9.06-.41-9.49,3.41-5.35,7.28-5.35,7.28,3.17,2.7,2.4,3.34,2.4,3.34a3.61,3.61,0,0,0-4.62.25c-6.61,7.8-8.87,7.89-9.82,7.87s-1.11.27-1.11.27c.25,10.17-4.72,10-4.72,10,2.59-4,0-4.59,0-4.59s-2-.4-4.68,1.64a10.93,10.93,0,0,1-7.45,2.47c-4.3.53-1.26,5.53-1.26,5.53-4.34-.06-8.06-7.14-8.91-8.06s-2.5-2.64-2.5-2.64c-3.2-1.5-5.61,4.6-5.61,4.6a13.55,13.55,0,0,1,1.44-10.89c-2.38-1.41-5.08,1.84-5.08,1.84,3.13-17.15,19.78-8.59,19.78-8.59.87-.36,2.64-1.21,2.64-1.21s2.93-1.11,1.62-3.13c-1-1.51-1.95-1-5.25-.36s-6.89-1.93-6.89-1.93c5,0,7-2,5.77-4.73s-5.32-.8-5.32-.8,1-7.64-5.4-9.31-9.66-.44-9.66-.44-.67.12-.73.69a.91.91,0,0,0,.23.8c5.49,1.24,6.91,2.87,6.91,2.87s-5.19-.12-5.95,3.32,5,5,5,5c-7.06,4.32-12.73,3.68-12.73,3.68,2.31,2.74,6.09,1.57,6.09,1.57a18.86,18.86,0,0,1-5,3.57,10.61,10.61,0,0,1-3.63.56c-.05,2.23,1.44,2,2.82,2.23s1.18.58,1.18.58c-.84.89-4.65,2.22-6.74,2.17a49.59,49.59,0,0,1-7.26-.82c-3.64-.53-5,1.87-6,2.79-2.47,2.45-7,1.46-7,1.46,1,0,1.49-1,.78-1.63s-2.37-.22-4.39.86-6.25.5-6.25.5a2.9,2.9,0,0,0,0,2.69s-2.24.21-4.35-2.62a4.66,4.66,0,0,1-.91-3.22,1.24,1.24,0,0,0-.85-1.42,7.64,7.64,0,0,1-3.89-3.37c-.36-.54-.71-.14-.71-.14-1.16.81-1.1,4.07-1.1,4.07-3.72-4.54-1.78-6.77-1.4-7.77a6.69,6.69,0,0,0,0-2.9c-.62-3.3,4.2-5.33,4.53-5.51s.22-.65.22-.65c-.53-1.34-5.11-.67-5.11-.67,3.65-5.6,8.13-3.83,8.13-3.83a12,12,0,0,0,1.82.58,1.68,1.68,0,0,0,1.37-.3,6.24,6.24,0,0,1,3.78-.82c3.21,0,5.16,2.92,6.07,4.29.57.87,1,2.5,2.85,1.21a15.88,15.88,0,0,0,4.38-5.49c1.46-2.94,1.22-10.84-1.35-8.59-.71.61,0,1.72.22,2.51s-4-.29-4.28-5.13,3.52-10,6.81-12.9a23.15,23.15,0,0,1,14.16-5.78c6.07-.51,14.84,4.85,16.71,6.27s2.44,1.41,2.84,1.39a.75.75,0,0,0,.6-.22c-.81-5.14-4.84-7.93-5.54-8.53-8.22-7-10.87-8-10.87-8a8.63,8.63,0,0,0-4.88-1.08c1.32-1.94-5.18-3.42-3.83.34,2.22,6.15-2.69,8.28-2.69,8.28s2.25-1.44.64-3.43a3.63,3.63,0,0,0-4.11-.93s1,3-2.59,6.48c-2.46,2.38.69-1.77-2.8-3-1.18-.55-3.78,1-3.78,1s-4.58,3-5.38,3.66c-.65.47-.37,1.76-.37,1.76.74,4.94-7.11,5.82-5.82,4.92s-.62-1.26-.62-1.26a2.79,2.79,0,0,0-2.12.74c-2.32,2.14-6.38,2.8-6.38,2.8a3,3,0,0,0-.94.24,1.51,1.51,0,0,0-.67,1.35,3.73,3.73,0,0,0,1,1.91c.59.68-.65.52-.65.52-6.51-.67-5.55-6.2-5.55-6.2a15.86,15.86,0,0,1-6.31-4.33c-.82-.88-.86.21-.86.21s-.28,3.67-.82,3.1c-6.64-6.91.8-10.16.8-10.16a4.17,4.17,0,0,1,1-3.87c2-2,.47-2.63.47-2.63-2.47-1-3.89,1.76-3.89,1.76a4.91,4.91,0,0,1,5.55-6.37,2.32,2.32,0,0,0,1.73-.56,4.52,4.52,0,0,1,2.65-1.18c1.67-.17,5.07,1.2,6.65,2.55,1.43,1.23,3.56,1,5.11.43A13.24,13.24,0,0,0,82.05,129c4.9-6.17-.58-9.6-2.74-9.52s-3.67,1.71-4.44,2.52a12.13,12.13,0,0,1-2.08,1.87,13.71,13.71,0,0,1-1.28.75c0-.38.14-.71.66-1.42a3.54,3.54,0,0,0,.51-3,21.85,21.85,0,0,0-.4-2.67,2.27,2.27,0,0,0-.59,0c-3.1.23-6.93,4.4-6.93,4.4a19.67,19.67,0,0,1,.68-2.41,7.51,7.51,0,0,0,.31-3.14c-6.7-2.4-4.49-6.89-4.49-6.89a3.78,3.78,0,0,0,4.55,2.67c2-.34,1.72-3,1.8-5a13.43,13.43,0,0,1,1.46-4.57l-2.76-.81a5.5,5.5,0,0,1-3.48-2.71c-2.82.72-4.26-.51-4.26-.51-3.06-2.45-.91-7.11-.91-7.11s1,2.16,2.17,2.3c2.06.21,1.89-2,1.89-2-5.54-.82-6-3.35-6-3.35a2.27,2.27,0,0,0-2.43,2.7c-3.87-4.65-.14-7,1.39-7.24,4.46-.82,3.37-5.34,3.37-5.34-.76-2.54-5.09-2.33-5.09-2.33,5.12-5.36,7.49-2.5,8.41-2.39s1.2-.17,3.08-1.07A6.41,6.41,0,0,1,68,72.18c1.29-4-4.61-4.35-4.61-4.35,2.57-2.66,7.1-3.43,12.8-.48s3.13,10.84,3.13,10.84C85,82.31,89.88,97.52,90.26,99.36s1,2.61,2.44,2.9a2.46,2.46,0,0,0,2.11-.29c-2.25-8.83,7.43-10.49,7.43-10.49s-1.95,5.49,2.15,6.13,6.06-3.44,6.06-3.44c2,1.33,6,2.07,11.19,1s5.62-2.9,5.94-3.53a18.64,18.64,0,0,0,.77-2.3,1.3,1.3,0,0,0-1.27.25c-1.83,1.73-7.06,1.25-8.76.65a5.63,5.63,0,0,0-2.41-.48,2.22,2.22,0,0,0-2,1.39c-.44.86-.62,1.64-1.28,2-.41.19-.8-2.75-.8-2.75a5.86,5.86,0,0,1-1.89-3.6,2.74,2.74,0,0,1,1.66-3c.91,1.91,3.6.59,3.6.59s1.94-1,.9-2.11-5-.27-7.59.56A33.37,33.37,0,0,1,103.21,84c-6,.46-9-3.51-9-6.49s3.24-4.22,6.08-5,2.25-3.81,2.25-3.81c1.91.8,1.92,4,.17,6.43s-1,4.19-1,4.19c1.48,5.21,11.67.73,11.67.73-.86-.82-4.22,0-4.22,0,.73-2.78.45-4-.19-4.12a1.84,1.84,0,0,1-1-.37c-1-.89-.09-2.71-.09-2.71-.35-1.71,3.39-2.57,5.63-3.19a11.48,11.48,0,0,1,3.38-.27,4,4,0,0,1,2.86,1.43,1.84,1.84,0,0,0,2,.79c.56-.27.22-1.72-1.75-2.14a9.9,9.9,0,0,0-1.38-.14C116,69.14,117.19,68,117.19,68a14.36,14.36,0,0,1,1.25-.94,9.15,9.15,0,0,1,3.75-1l.34-.73A72.53,72.53,0,0,0,119.28,57c-.74-1.2.15-1.67.15-1.67l7.25,1.82c-.91,1.5.17,3.8,1.47,3.59s.67-.8.53-2a1.16,1.16,0,0,1,.73-1.41s5-1.73,5.85-1.85a2.9,2.9,0,0,1,1.66.36s1.75,2.23,3.42,4.26c.56.66.27,1,.27,1-1.64.85-2.43,2.73-.73,3s2.58-.81,3.48-1.51a2.22,2.22,0,0,1,1.85-.43c4.31,1.66,6.27,2.61,6.27,2.61l-9.23,6a13.92,13.92,0,0,1,.84,8.94s-1.19,3,1.34,4.44,5.45-.83,5.45-.83c-.11,4.78-5.2,7.92-5.2,7.92s-2.23,1.56,1,4c2.45,1-5.18.93-5.89,8.16-.17,1.73,2.48,7.71,2.48,7.71s-3.89-2.52-3.63.22a15,15,0,0,0,1.78,3.33c-4.62,3-.94,7-.94,7,6,6.62,12.35,17.38,13.48,22.18.49,2.07,1.75,2.09,1.75,2.09,4.55.49,7.14,2.72,10.29,6.19,3.91,4.69,16.86,8.21,19.64,2.23s-1-11.81-1-11.81-3.11-2.84-3.55.64,3,3.41,3,3.41c-12.69,4.74-15.11-15-15.11-15-.35-2-.94-2.92-2.48-2.9-2.06,0-3.28,3.14-3.28,3.14.16-12.51,8.65-15.14,8.65-15.14,2.47-14,8.53-25.52,10.16-32.56,1.28-5.49,4.45-19-2.24-24.59-3.19-2.66-10.27-3.23-14.37,3.15-4,7,.18,12.93,4.27,10.58,4.57-2.63-.1-7.38-.1-7.38s5.88-1,6.45,7.17A11.59,11.59,0,0,1,169.2,84.5c3.18,5.84-1.74,14.3-1.74,14.3C163,108.62,170,114.64,170,114.64c-9.43-.94-8.31-9.59-9.35-7.32-4.17,9.16.9,14.44.9,14.44a11.27,11.27,0,0,1-8.38-6.31c-2.62-5.51,1.08-11.28,1.08-11.28s3.29-5.28,3.42-10c.32-5.43-2.95-12.6-2.95-12.6-3.54-7.72-2.21-11.11-1-15.56,3.24-11.81,12.46-15.79,12.46-15.79,9.76-4.44,16.32,1.07,18.43,3.33,7.41,7.93,5.49,23.81,3,33.61S183,108,183,108c-1.72,7,6,3.13,6,3.13,5.76-3.3,5.18-8.52,5.18-8.52,3.3,11.54-.65,16.91-.65,16.91,3.76.11,5.11-4.68,5.11-4.68,1.71,8.91-1.5,10.71-3.18,13.13s-4.88,5.6-2.15,14.76C199.14,170.15,178,169,172.21,166.72Z"/><path class="cls-1" d="M36.37,232.11c-.32,1-.59,1.9-.87,2.78s-.56,1.84-.88,2.83c-.64-1.94-1.17-3.56-1.82-5.61l-3.58-11h-2.4l6.57,19.39.07.23h2.21l6.55-19.62H39.91Z"/><rect class="cls-1" x="44.32" y="221.13" width="2.28" height="19.62"/><polygon class="cls-1" points="54.33 221.13 52.06 221.13 52.06 240.75 63.2 240.75 63.2 238.64 54.33 238.64 54.33 221.13"/><polygon class="cls-1" points="68.26 221.13 65.98 221.13 65.98 240.75 77.13 240.75 77.13 238.64 68.26 238.64 68.26 221.13"/><polygon class="cls-1" points="82.19 231.39 89.95 231.39 89.95 229.34 82.19 229.34 82.19 223.21 91.38 223.21 91.38 221.13 79.91 221.13 79.91 240.75 91.73 240.75 91.73 238.67 82.19 238.67 82.19 231.39"/><path class="cls-1" d="M106.68,221.13h-4.93v19.62h5c5.93,0,9.33-3.59,9.33-9.86S112.72,221.13,106.68,221.13ZM104,223.18h2.57c5.86,0,7.09,4.19,7.09,7.71,0,5.28-2.32,7.84-7.09,7.84H104Z"/><polygon class="cls-1" points="122.32 238.67 122.32 231.39 130.08 231.39 130.08 229.34 122.32 229.34 122.32 223.21 131.51 223.21 131.51 221.13 120.05 221.13 120.05 240.75 131.86 240.75 131.86 238.67 122.32 238.67"/></svg>